HIERARCHY
ROOT Hips
{
	OFFSET	0.00	0.00	0.00
	CHANNELS 6 Xposition Yposition Zposition Zrotation Xrotation Yrotation
	JOINT LeftUpLeg
	{
		OFFSET	 0.126116	-0.014019	-0.065224
		CHANNELS 3 Zrotation Xrotation Yrotation
		JOINT LeftLeg
		{
			OFFSET	 0.000000	 0.000000	 0.569914
			CHANNELS 3 Zrotation Xrotation Yrotation
			JOINT LeftFoot
			{
				OFFSET	 0.000000	 0.000000	 0.544423
				CHANNELS 3 Zrotation Xrotation Yrotation
				JOINT LeftToeBase
				{
					OFFSET	 0.000000	 0.000000	 0.207117
					CHANNELS 3 Zrotation Xrotation Yrotation
					End Site
					{
						OFFSET	 0.000000	 0.000000	 0.207117
					}
				}
			}
		}
	}
	JOINT RightUpLeg
	{
		OFFSET	-0.124023	-0.008373	-0.065224
		CHANNELS 3 Zrotation Xrotation Yrotation
		JOINT RightLeg
		{
			OFFSET	 0.000000	 0.000000	 0.570047
			CHANNELS 3 Zrotation Xrotation Yrotation
			JOINT RightFoot
			{
				OFFSET	 0.000000	 0.000000	 0.544354
				CHANNELS 3 Zrotation Xrotation Yrotation
				JOINT RightToeBase
				{
					OFFSET	 0.000000	 0.000000	 0.207540
					CHANNELS 3 Zrotation Xrotation Yrotation
					End Site
					{
						OFFSET	 0.000000	 0.000000	 0.207540
					}
				}
			}
		}
	}
	JOINT Spine
	{
		OFFSET	 0.000184	-0.007763	 0.117403
		CHANNELS 3 Zrotation Xrotation Yrotation
		JOINT Spine1
		{
			OFFSET	 0.000000	 0.000000	 0.137269
			CHANNELS 3 Zrotation Xrotation Yrotation
			JOINT Spine2
			{
				OFFSET	 0.000000	 0.000000	 0.156879
				CHANNELS 3 Zrotation Xrotation Yrotation
				JOINT LeftShoulder
				{
					OFFSET	 0.080501	-0.002496	 0.160144
					CHANNELS 3 Zrotation Xrotation Yrotation
					JOINT LeftArm
					{
						OFFSET	 0.000000	 0.000000	 0.164363
						CHANNELS 3 Zrotation Xrotation Yrotation
						JOINT LeftForeArm
						{
							OFFSET	 0.000000	 0.000000	 0.364576
							CHANNELS 3 Zrotation Xrotation Yrotation
							JOINT LeftHand
							{
								OFFSET	 0.000000	 0.000000	 0.360812
								CHANNELS 3 Zrotation Xrotation Yrotation
								JOINT LeftHandIndex1
								{
									OFFSET	 0.000000	 0.000000	 0.086006
									CHANNELS 3 Zrotation Xrotation Yrotation
									JOINT LeftHandIndex2
									{
										OFFSET	 0.000000	 0.000000	 0.047237
										CHANNELS 3 Zrotation Xrotation Yrotation
										JOINT LeftHandIndex3
										{
											OFFSET	-0.004284	-0.000551	 0.038165
											CHANNELS 3 Zrotation Xrotation Yrotation
											End Site
											{
												OFFSET	-0.004284	-0.000551	 0.038165
											}
										}
									}
								}
							}
						}
					}
				}
				JOINT Neck
				{
					OFFSET	 0.000000	 0.000000	 0.176489
					CHANNELS 3 Zrotation Xrotation Yrotation
					JOINT Head
					{
						OFFSET	 0.000000	-0.001747	 0.077940
						CHANNELS 3 Zrotation Xrotation Yrotation
						End Site
						{
							OFFSET	 0.000000	-0.001747	 0.077940
						}
					}
				}
				JOINT RightShoulder
				{
					OFFSET	-0.080363	 0.000306	 0.159706
					CHANNELS 3 Zrotation Xrotation Yrotation
					JOINT RightArm
					{
						OFFSET	 0.000000	 0.000000	 0.164196
						CHANNELS 3 Zrotation Xrotation Yrotation
						JOINT RightForeArm
						{
							OFFSET	 0.000000	 0.000000	 0.365611
							CHANNELS 3 Zrotation Xrotation Yrotation
							JOINT RightHand
							{
								OFFSET	 0.000000	 0.000000	 0.360648
								CHANNELS 3 Zrotation Xrotation Yrotation
								JOINT RightHandIndex1
								{
									OFFSET	 0.000000	 0.000000	 0.069977
									CHANNELS 3 Zrotation Xrotation Yrotation
									JOINT RightHandIndex2
									{
										OFFSET	 0.000000	 0.000000	 0.052305
										CHANNELS 3 Zrotation Xrotation Yrotation
										JOINT RightHandIndex3
										{
											OFFSET	 0.009002	-0.000782	 0.042196
											CHANNELS 3 Zrotation Xrotation Yrotation
											End Site
											{
												OFFSET	 0.009002	-0.000782	 0.042196
											}
										}
									}
								}
							}
						}
					}
				}
			}
		}
	}
}
MOTION
Frames:    11
Frame Time: 0.03333334
-0.421832	 0.210603	 1.225679	-175.654000	 3.833182	 12.560340	 29.124250	-2.048314	 171.523200	-8.000920	-38.268870	-5.327535	 133.641900	 71.738090	-147.563200	-2.385833	 28.452760	 0.000004	-12.674230	-36.114560	 160.977400	 5.911150	-52.315570	 3.475550	-5.808300	 78.049870	 23.161900	 2.384659	 28.388700	-0.000001	 33.871920	-9.490789	-4.103654	 39.289510	 11.223700	 26.896030	 1.031592	 3.986497	-14.743890	-91.776210	 78.527360	-180.000000	-10.090750	 27.944620	 9.349737	-1.436937	 4.607445	-93.377140	 4.312718	-29.642240	-0.737748	-4.130319	 21.525730	 0.991547	-5.167930	 0.731704	 3.519349	-1.378229	 35.397820	-2.634230	-18.131810	 7.392851	 7.619623	-21.336720	-22.611840	-14.881160	 89.782200	 78.323200	 179.985100	 56.881550	-7.115882	-8.491627	-10.761400	-2.144712	 37.164360	-20.118400	 1.152488	-52.110580	 5.716227	 19.173190	-3.685159	 5.027444	 0.246877	-9.377972	-2.350882	 35.473990	 5.254307
-0.424633	 0.216144	 1.227043	-174.867900	 3.552342	 11.539670	 29.721900	-0.142475	 172.009000	-8.054326	-36.122770	-5.104236	 131.732700	 72.061130	-145.435000	-2.385833	 28.452760	 0.000004	-11.683150	-35.916910	 162.748900	 6.181070	-52.482960	 3.697945	-3.647629	 78.303610	 20.321370	 2.384659	 28.388700	-0.000001	 32.347420	-8.253830	-3.173920	 38.455060	 9.618079	 27.310840	 1.078993	 4.358064	-14.275610	-91.776200	 78.527350	 180.000000	-11.186310	 27.322970	 12.047890	-1.353495	 4.541039	-94.356510	 4.844220	-30.496560	-0.529417	-4.130319	 21.525730	 0.991547	-5.167930	 0.731704	 3.519349	-1.378229	 35.397820	-2.634230	-17.583440	 7.748081	 8.054694	-21.199130	-22.895460	-15.785500	 89.782160	 78.317480	 179.986600	 52.437520	-9.012414	-8.218953	-9.500496	-1.139399	 34.400540	-24.786140	-3.203402	-51.306540	 5.716227	 19.173190	-3.685159	 5.027444	 0.246877	-9.377972	-2.350882	 35.473990	 5.254307
-0.426418	 0.220126	 1.228148	-174.079400	 3.290030	 10.615000	 30.149620	 1.411839	 172.400100	-8.315647	-34.359010	-5.037468	 131.232100	 71.842540	-144.561200	-2.385833	 28.452760	 0.000004	-10.431450	-35.836890	 164.365100	 6.143105	-52.558150	 3.671446	-0.630316	 78.609900	 16.726810	 2.384659	 28.388700	-0.000001	 31.030530	-7.290434	-2.309475	 37.884180	 8.431775	 27.590200	 1.083635	 4.667723	-13.982010	-91.776190	 78.527360	-180.000000	-12.560100	 27.157870	 14.010520	-1.296199	 4.645229	-95.042270	 5.212762	-31.702230	-0.381941	-4.130319	 21.525730	 0.991547	-5.167930	 0.731704	 3.519349	-1.378229	 35.397820	-2.634230	-17.142920	 7.676125	 8.356630	-20.871190	-22.833280	-15.900110	 89.782200	 78.310590	 179.987700	 49.049830	-9.894589	-8.479198	-8.890252	-0.728472	 33.325420	-28.671930	-6.818829	-52.424200	 5.716227	 19.173190	-3.685159	 5.027444	 0.246877	-9.377972	-2.350882	 35.473990	 5.254307
-0.426926	 0.222702	 1.228854	-173.219900	 3.174420	 10.409060	 30.581320	 1.860612	 172.072300	-8.611453	-33.622190	-5.109425	 131.902700	 71.554830	-144.959800	-2.385833	 28.452760	 0.000004	-9.688139	-35.619400	 164.934700	 6.014327	-52.285780	 3.555963	 2.019842	 78.961720	 13.506230	 2.384659	 28.388700	-0.000001	 29.727430	-6.903595	-2.103069	 37.584370	 7.566581	 27.739630	 1.109435	 5.008569	-13.833920	-91.776180	 78.527360	-180.000000	-14.000180	 27.391890	 15.382280	-1.262083	 4.920918	-95.419270	 5.501737	-33.044300	-0.325311	-4.130319	 21.525730	 0.991547	-5.167930	 0.731704	 3.519349	-1.378229	 35.397820	-2.634230	-16.630360	 7.675967	 8.212027	-20.538090	-23.062910	-15.186690	 89.782100	 78.301490	 179.989100	 47.057770	-10.248990	-8.166995	-8.843395	-0.620663	 31.903030	-32.085210	-9.941368	-53.737640	 5.716227	 19.173190	-3.685159	 5.027444	 0.246877	-9.377972	-2.350882	 35.473990	 5.254307
-0.426881	 0.224572	 1.229333	-172.391300	 3.172114	 10.334210	 30.966750	 1.865411	 171.685700	-9.014161	-33.278680	-5.288646	 131.502900	 71.332120	-144.359500	-2.385833	 28.452760	 0.000004	-8.806953	-35.540070	 165.294700	 5.651660	-51.899990	 3.251403	 5.978564	 79.120450	 9.005651	 2.384659	 28.388700	-0.000001	 28.512310	-6.700948	-1.979577	 37.372100	 6.837265	 27.843740	 1.078422	 5.351658	-13.720060	-91.776250	 78.527400	-179.999900	-15.483220	 27.697120	 16.478860	-1.239864	 5.321631	-95.619480	 5.767394	-34.490390	-0.344656	-4.130319	 21.525730	 0.991547	-5.167930	 0.731704	 3.519349	-1.378229	 35.397820	-2.634230	-16.162030	 7.780335	 8.493892	-20.334350	-23.008430	-15.605340	 89.782100	 78.292330	 179.990500	 45.215270	-10.378220	-8.161088	-8.854680	-0.599119	 31.482060	-35.599500	-12.100250	-56.196760	 5.716227	 19.173190	-3.685159	 5.027444	 0.246877	-9.377972	-2.350882	 35.473990	 5.254307
-0.426637	 0.225627	 1.229738	-171.638300	 2.980958	 10.293660	 31.094000	 1.962323	 171.299000	-9.525490	-33.078370	-5.545512	 131.081100	 71.140210	-143.636900	-2.385833	 28.452760	 0.000004	-8.195797	-35.247660	 165.571300	 5.461410	-51.551330	 3.086579	 8.795447	 79.181840	 5.802520	 2.384659	 28.388700	-0.000001	 27.494010	-6.066177	-2.018156	 37.235580	 5.986836	 28.055100	 1.018845	 5.635640	-13.542090	-91.776250	 78.527380	-180.000000	-16.620960	 27.925260	 17.213020	-1.225129	 5.839342	-95.711360	 5.851491	-35.737490	-0.510663	-4.130319	 21.525730	 0.991547	-5.167930	 0.731704	 3.519349	-1.378229	 35.397820	-2.634230	-15.604870	 8.457271	 8.447344	-20.178820	-23.587740	-15.712060	 89.782100	 78.288220	 179.991200	 42.999050	-10.362020	-8.555962	-8.705977	-0.541290	 31.865390	-38.599070	-13.420430	-59.128680	 5.716227	 19.173190	-3.685159	 5.027444	 0.246877	-9.377972	-2.350882	 35.473990	 5.254307
-0.426490	 0.226023	 1.230035	-171.076700	 2.667252	 10.078420	 31.316490	 2.310978	 171.069100	-9.992941	-32.827300	-5.767665	 131.844700	 70.870960	-144.013200	-2.385833	 28.452760	 0.000004	-7.216791	-34.993740	 166.105400	 5.091759	-51.360790	 2.789207	 11.395260	 79.189090	 3.058771	 2.384659	 28.388700	-0.000001	 26.827940	-5.060390	-1.924051	 37.195580	 5.084964	 28.286710	 0.956946	 5.884825	-13.286970	-91.776210	 78.527380	-180.000000	-17.389390	 28.008630	 17.553470	-1.217694	 6.194310	-95.743040	 5.992367	-36.588660	-0.619431	-4.130319	 21.525730	 0.991547	-5.167930	 0.731704	 3.519349	-1.378229	 35.397820	-2.634230	-14.886160	 8.990999	 7.758994	-19.888110	-24.141760	-14.846940	 89.782160	 78.286630	 179.991400	 41.269630	-10.202910	-9.071299	-8.536236	-0.486133	 32.560140	-40.489190	-14.002250	-61.290980	 5.716227	 19.173190	-3.685159	 5.027444	 0.246877	-9.377972	-2.350882	 35.473990	 5.254307
-0.426274	 0.226220	 1.230321	-170.587100	 2.439795	 9.982598	 32.040920	 2.400280	 170.623400	-10.521940	-32.678570	-6.037545	 133.075200	 70.623820	-144.786100	-2.385833	 28.452760	 0.000004	-5.609315	-34.959790	 166.589500	 4.329839	-51.183450	 2.187933	 15.546250	 79.025280	-1.168449	 2.384659	 28.388700	-0.000001	 26.306680	-4.289671	-1.873536	 37.231440	 4.319817	 28.437090	 0.867790	 6.174914	-13.088350	-91.776120	 78.527380	 179.999900	-18.242430	 28.225080	 17.860700	-1.213573	 6.374465	-95.757740	 6.378890	-37.404070	-0.577694	-4.130319	 21.525730	 0.991547	-5.167930	 0.731704	 3.519349	-1.378229	 35.397820	-2.634230	-14.145270	 8.735608	 7.324392	-19.476810	-23.707770	-14.241280	 89.782040	 78.203870	-180.000000	 40.058480	-10.096410	-9.449252	-8.470930	-0.480590	 33.215920	-41.631040	-14.172310	-62.613000	 5.716227	 19.173190	-3.685159	 5.027444	 0.246877	-9.377972	-2.350882	 35.473990	 5.254307
-0.425858	 0.226398	 1.230506	-170.238200	 2.278292	 10.283260	 32.891660	 2.088092	 169.840800	-11.178780	-32.767460	-6.417652	 134.597000	 70.495410	-145.762500	-2.385833	 28.452760	 0.000004	-4.734662	-34.816820	 166.444400	 3.880232	-50.916800	 1.830441	 17.490810	 78.835650	-3.197251	 2.384659	 28.388700	-0.000001	 25.969810	-3.899411	-2.054625	 37.338650	 3.663678	 28.414050	 0.735727	 6.410448	-12.965890	-91.776170	 78.527360	 180.000000	-18.992720	 28.613990	 18.262520	-1.204374	 6.542307	-95.819760	 6.649701	-38.170170	-0.565106	-4.130319	 21.525730	 0.991547	-5.167930	 0.731704	 3.519349	-1.378229	 35.397820	-2.634230	-13.573760	 8.379654	 7.336177	-19.157930	-23.219620	-14.146840	 89.782070	 78.281150	 179.992700	 39.382430	-9.945065	-9.639286	-8.524861	-0.516999	 33.406470	-42.216790	-14.468870	-62.983510	 5.716227	 19.173190	-3.685159	 5.027444	 0.246877	-9.377972	-2.350882	 35.473990	 5.254307
-0.425688	 0.226452	 1.230580	-170.246300	 2.104413	 10.295370	 33.554380	 2.133306	 169.528400	-11.792110	-32.644600	-6.737812	 136.394600	 70.304010	-146.941300	-2.385833	 28.452760	 0.000004	-4.138052	-34.700810	 166.534600	 3.502856	-50.821060	 1.535253	 18.251810	 78.688070	-3.867445	 2.384659	 28.388700	-0.000001	 26.160080	-3.466565	-1.850818	 37.455260	 3.217264	 28.285980	 0.430020	 6.464895	-12.866670	-91.776220	 78.527400	-180.000000	-19.153580	 28.764250	 18.380080	-1.199759	 6.641447	-95.848130	 6.681574	-38.532990	-0.595234	-4.130319	 21.525730	 0.991547	-5.167930	 0.731704	 3.519349	-1.378229	 35.397820	-2.634230	-13.286740	 8.368609	 7.489585	-19.067060	-22.946020	-14.805740	 89.782110	 78.203890	 180.000000	 39.437770	-9.931996	-9.649148	-8.673099	-0.605445	 33.591590	-42.574340	-13.987800	-63.224950	 5.716227	 19.173190	-3.685159	 5.027444	 0.246877	-9.377972	-2.350882	 35.473990	 5.254307
-0.425674	 0.226676	 1.230667	-170.611700	 2.312292	 10.044470	 34.430210	 2.058998	 169.722000	-12.291990	-32.406800	-6.971822	 137.271900	 69.539180	-147.296200	-2.385833	 28.452760	 0.000004	-3.263055	-35.144380	 166.920500	 2.999705	-50.911670	 1.146552	 21.005050	 78.269110	-6.637943	 2.384659	 28.388700	-0.000001	 26.911580	-3.982811	-1.143172	 37.411960	 3.843004	 27.825990	-0.199199	 5.924325	-13.039540	-91.776150	 78.527420	 180.000000	-18.627130	 28.825150	 18.244820	-1.212098	 6.705388	-95.735550	 6.432933	-38.467400	-0.696051	-4.130319	 21.525730	 0.991547	-5.167930	 0.731704	 3.519349	-1.378229	 35.397820	-2.634230	-13.370340	 8.368343	 7.825248	-19.226980	-22.780100	-15.496380	 89.782000	 78.203850	-179.999900	 39.912040	-9.989158	-9.644214	-8.707446	-0.646765	 34.032540	-42.715880	-12.756340	-63.623640	 5.716227	 19.173190	-3.685159	 5.027444	 0.246877	-9.377972	-2.350882	 35.473990	 5.254307
